<svg xmlns="http://www.w3.org/2000/svg" width="461.032" height="251.556" viewBox="0 0 461.032 251.556"><g transform="translate(-584.83 -310.596)"><g transform="translate(584.83 310.596)"><path d="M412.7,144.171H315.552a4.723,4.723,0,1,0,0,9.446h15.624a43.132,43.132,0,0,1,10.061.757,14.389,14.389,0,0,1,9.424,13.418v45.323H378.23V167.793a14.35,14.35,0,0,1,9.805-13.525,45.581,45.581,0,0,1,9.572-.651H412.7a4.723,4.723,0,0,0,0-9.446Zm-48.318-7.97a12.228,12.228,0,1,0-12.227-12.228A12.228,12.228,0,0,0,364.379,136.2Zm105.156,6.644a18,18,0,0,0-9.24,2.6,33.694,33.694,0,0,0-8.382,7.18h-.229v-8.3l-.858-.859-27.292,1.489v4.176a18.41,18.41,0,0,1,3.462.63,9.477,9.477,0,0,1,2.6,1.144,8.441,8.441,0,0,1,2.346,2.6,7.074,7.074,0,0,1,.973,3.691v33.3a7.411,7.411,0,0,1-.688,3.434,4.2,4.2,0,0,1-2.516,1.945,14.057,14.057,0,0,1-2.489.543q-1.461.2-2.89.315v4.177h38.276V196.74q-1.26-.057-4.091-.486a14.765,14.765,0,0,1-4.091-1.059,4.433,4.433,0,0,1-2.117-2.06,7.661,7.661,0,0,1-.629-3.318V158.407a18.215,18.215,0,0,1,5.149-4.535,12.14,12.14,0,0,1,5.55-1.815q-.229.968-.516,2.079a13.14,13.14,0,0,0-.285,3.105,7.2,7.2,0,0,0,2.89,6.21,11.659,11.659,0,0,0,7.065,2.108,8.712,8.712,0,0,0,7.094-3.29,12.5,12.5,0,0,0-.544-16.134A11.452,11.452,0,0,0,469.536,142.845Zm186.948,48.717a16.686,16.686,0,0,1-9.669,2.946q-9.842,0-14.361-6.121t-4.52-17.851h38.677v-3.719a29.082,29.082,0,0,0-1.488-9.3,19.517,19.517,0,0,0-4.749-7.7,23.283,23.283,0,0,0-8.524-5.378,37.72,37.72,0,0,0-13.16-1.946,33.544,33.544,0,0,0-13.246,2.518,29.182,29.182,0,0,0-9.811,6.579,30.076,30.076,0,0,0-8.238,20.711,35.375,35.375,0,0,0,1.973,11.987,25.866,25.866,0,0,0,5.978,9.583,28.674,28.674,0,0,0,10.157,6.465,40.119,40.119,0,0,0,14.618,2.4,33,33,0,0,0,9.011-1.116,35.3,35.3,0,0,0,7.753-3.289,29.366,29.366,0,0,0,6.436-4.949,34.84,34.84,0,0,0,4.835-6.15l-4.349-3.148A27.591,27.591,0,0,1,656.484,191.562ZM630.795,151.6q2.63-4.463,7.037-4.463a6.535,6.535,0,0,1,4.262,1.373,9.068,9.068,0,0,1,2.661,4.063,23.4,23.4,0,0,1,1.2,5.893q.342,3.605.342,7.038l-18.365.228Q628.162,156.062,630.795,151.6Zm-18.6-7.438H588.567v4.177q.858.115,2.18.4a17.663,17.663,0,0,1,2.753.859,10.5,10.5,0,0,1,2.38,1.344,2.245,2.245,0,0,1,1,1.8c0,.191-.028.572-.087,1.144a9.328,9.328,0,0,1-.6,2.232q-3.825,9.263-6.426,15.239t-5.454,12.208q-4.131-9.035-7.832-17.212t-5.535-12.524q-.343-.859-.573-1.545a3.641,3.641,0,0,1-.228-1.031q0-1.257,2.629-2.059a17.9,17.9,0,0,1,4.575-.858V144.16H542.108v4.177a13.259,13.259,0,0,1,5.178,1.888,9.285,9.285,0,0,1,3.747,4.234q5.206,11.558,9.869,21.627t11.244,25.346h10.527q.972-3.09,2.431-6.865t2.6-6.179q3.718-7.952,7.581-16.449t7.868-16.849a11.469,11.469,0,0,1,4.033-4.806,13.028,13.028,0,0,1,5.006-1.945Zm89.874,52.008a22.436,22.436,0,0,1-2.419-.916,5.006,5.006,0,0,1-2.42-2.059,6.9,6.9,0,0,1-.748-3.434V113.265l-.86-.915-28.833,1.487v4.177a19.018,19.018,0,0,1,4.09.8,13.845,13.845,0,0,1,3.462,1.431,6.779,6.779,0,0,1,2.374,2.832,9.254,9.254,0,0,1,.886,4.034V190.5a7.455,7.455,0,0,1-.662,3.4,4.349,4.349,0,0,1-2.506,1.975,11.232,11.232,0,0,1-2.505.572q-1.411.172-2.909.286v4.177h36.044V196.74A14.944,14.944,0,0,1,702.07,196.168Zm-160.134-1.259a4.907,4.907,0,0,1-2.374-2.231,8.893,8.893,0,0,1-.773-4.062q0-2.8.257-11.672t.257-15.333a20.585,20.585,0,0,0-2.087-9.928,14.527,14.527,0,0,0-5.635-5.807,24.063,24.063,0,0,0-8.354-2.717,72.678,72.678,0,0,0-10.183-.659,44.314,44.314,0,0,0-8.7.944,35.616,35.616,0,0,0-8.3,2.661,20.855,20.855,0,0,0-6.207,4.2,8.177,8.177,0,0,0-.079,11.787q2.469,2.317,7.289,2.317a14.88,14.88,0,0,0,5.021-.63,9.893,9.893,0,0,0,2.953-1.773,5.419,5.419,0,0,0,1.494-2.317,7.6,7.6,0,0,0,.516-2.433,13.964,13.964,0,0,0-.8-4.519,22.375,22.375,0,0,1-.976-3.491,14.12,14.12,0,0,1,2.719-1.459,10.826,10.826,0,0,1,4.206-.715,7.468,7.468,0,0,1,4.52,1.259,7.56,7.56,0,0,1,2.519,3.089,12.245,12.245,0,0,1,.973,3.948q.228,2.346.229,3.776v5.492a69.793,69.793,0,0,1-10.544,3.639q-7.222,2.035-12.378,3.924a44.21,44.21,0,0,0-4.957,2.234,15.181,15.181,0,0,0-3.982,3.038,14.378,14.378,0,0,0-2.923,4.613,17.216,17.216,0,0,0-1.032,6.331,12.876,12.876,0,0,0,4.7,10.4,17.12,17.12,0,0,0,11.347,3.924,29.888,29.888,0,0,0,6.963-.63,29.148,29.148,0,0,0,5.185-1.888,21.508,21.508,0,0,0,3.869-2.346,37.709,37.709,0,0,0,3.753-3.318h.342a10.455,10.455,0,0,0,4.511,5.978q3.311,2.088,10.336,2.088a28.025,28.025,0,0,0,7.25-.914,43.442,43.442,0,0,0,5.94-2v-4.177q-1.717,0-3.806-.086A8.419,8.419,0,0,1,541.935,194.909Zm-21.743-5.56a14.913,14.913,0,0,1-3.588,3.184,9.574,9.574,0,0,1-5.2,1.289,6.882,6.882,0,0,1-5.024-2.007q-2.037-2.009-2.038-6.482a13.362,13.362,0,0,1,1.206-5.877,11.139,11.139,0,0,1,3.33-4.1,25.416,25.416,0,0,1,5.168-2.953q3.158-1.406,6.374-2.495Z" transform="translate(-310.829 -111.745)" fill="#409db9"/><path d="M67.374,102.184A10.641,10.641,0,1,1,74.9,105.3,10.64,10.64,0,0,1,67.374,102.184ZM15.49,94.659A10.655,10.655,0,0,1,26.131,84.018h0A10.642,10.642,0,1,1,15.49,94.659ZM0,25.533.05,1.914,27.636,1.89s.128,22.713.128,23.643a22.752,22.752,0,0,0,45.5,0c0-.931.129-19.471.129-19.471a4.712,4.712,0,0,1,4.713-4.713l.076.007,18.017,0,.116-.012a4.713,4.713,0,0,1,4.713,4.713V25.533A50.515,50.515,0,1,1,0,25.533ZM232.306,58.242a30.14,30.14,0,0,1-10.383-6.006,27.238,27.238,0,0,1-6.867-9.468,30.613,30.613,0,0,1-2.516-12.616,31.837,31.837,0,0,1,2.2-12.216,27.415,27.415,0,0,1,6.608-9.526A29.119,29.119,0,0,1,231.79,2.2a45.51,45.51,0,0,1,27.98,0,30.454,30.454,0,0,1,10.439,6.207,26.213,26.213,0,0,1,6.465,9.439,31.319,31.319,0,0,1,2.232,11.9,32.61,32.61,0,0,1-2.2,11.987,26.2,26.2,0,0,1-6.436,9.641,30.772,30.772,0,0,1-10.784,6.579,41.617,41.617,0,0,1-14.331,2.288A39.543,39.543,0,0,1,232.306,58.242Zm6.98-51.378a14.55,14.55,0,0,0-3.747,5.779,31.685,31.685,0,0,0-1.658,7.638,87.587,87.587,0,0,0-.458,9.126q0,6.237.4,10.326a32.275,32.275,0,0,0,1.945,8.21,12.992,12.992,0,0,0,3.777,5.606,10.243,10.243,0,0,0,12.128.144,12.722,12.722,0,0,0,3.891-5.635,33.267,33.267,0,0,0,1.86-7.782,82.83,82.83,0,0,0,.6-10.642,84.394,84.394,0,0,0-.571-9.154,33.789,33.789,0,0,0-1.718-8.125,13.551,13.551,0,0,0-3.8-5.663,10.4,10.4,0,0,0-12.645.17Zm80.8,51.551V54.239q1.09-.116,2.633-.286a7.2,7.2,0,0,0,2.347-.574,3.638,3.638,0,0,0,1.715-1.829A9.4,9.4,0,0,0,327.292,48V21.226q0-5.836-2.152-8.783A7.354,7.354,0,0,0,318.8,9.5a12.9,12.9,0,0,0-4.273.688,15.908,15.908,0,0,0-3.874,2,13.231,13.231,0,0,0-2.666,2.346q-1,1.2-1.693,2.116V47.372a8.591,8.591,0,0,0,.571,3.348,4.006,4.006,0,0,0,1.889,2.031,10.921,10.921,0,0,0,2.289.915,17.836,17.836,0,0,0,2.689.572v4.176H278.946V54.239c.954-.077,1.917-.18,2.89-.314a14.13,14.13,0,0,0,2.49-.545,4.2,4.2,0,0,0,2.517-1.945A7.423,7.423,0,0,0,287.53,48V14.7a7.344,7.344,0,0,0-.917-3.49,8.166,8.166,0,0,0-2.4-2.8,9.473,9.473,0,0,0-2.6-1.145,18.441,18.441,0,0,0-3.461-.629V2.459L305.438.972l.857.858v8.3h.229q1.6-1.431,3.89-3.433a37.207,37.207,0,0,1,4.235-3.261,20.539,20.539,0,0,1,5.55-2.346,26.738,26.738,0,0,1,7.323-.973q9.323,0,13.988,5.291t4.664,14.047V47.488a7.611,7.611,0,0,0,.629,3.375,4.448,4.448,0,0,0,2.346,2,19.633,19.633,0,0,0,2.261.8,16.5,16.5,0,0,0,3.062.572v4.176Zm-171,0V54.239q1.087-.116,2.632-.286a7.2,7.2,0,0,0,2.346-.574,3.638,3.638,0,0,0,1.715-1.829A9.393,9.393,0,0,0,156.292,48V21.226q0-5.836-2.153-8.783A7.355,7.355,0,0,0,147.8,9.5a12.9,12.9,0,0,0-4.273.688,15.87,15.87,0,0,0-3.874,2,13.225,13.225,0,0,0-2.668,2.346q-1,1.2-1.692,2.116V47.372a8.592,8.592,0,0,0,.572,3.348,4,4,0,0,0,1.889,2.031,10.939,10.939,0,0,0,2.289.915,17.817,17.817,0,0,0,2.689.572v4.176H107.945V54.239c.954-.077,1.917-.18,2.889-.314a14.083,14.083,0,0,0,2.49-.545,4.2,4.2,0,0,0,2.517-1.945A7.413,7.413,0,0,0,116.528,48V14.7a7.352,7.352,0,0,0-.916-3.49,8.182,8.182,0,0,0-2.4-2.8,9.488,9.488,0,0,0-2.6-1.145,18.418,18.418,0,0,0-3.461-.629V2.459L134.436.972l.857.858v8.3h.229q1.6-1.431,3.89-3.433a37.21,37.21,0,0,1,4.235-3.261,20.543,20.543,0,0,1,5.55-2.346,26.745,26.745,0,0,1,7.323-.973q9.324,0,13.989,5.291t4.663,14.047V47.488a7.612,7.612,0,0,0,.629,3.375,4.449,4.449,0,0,0,2.345,2,19.74,19.74,0,0,0,2.262.8,14.685,14.685,0,0,0,1.856.411c.426-.043.86-.075,1.279-.125a10.121,10.121,0,0,0,2.46-.574,4.741,4.741,0,0,0,2.575-1.974,6.782,6.782,0,0,0,.745-3.4V14.7a6.684,6.684,0,0,0-.917-3.519,7.582,7.582,0,0,0-2.288-2.431A12.128,12.128,0,0,0,183,7.436a20.407,20.407,0,0,0-3.8-.8V2.459L207.228.972l.858.858V47.258a6.417,6.417,0,0,0,.858,3.406,5.223,5.223,0,0,0,2.459,2.088,19.369,19.369,0,0,0,2.519.915,17.264,17.264,0,0,0,2.86.572v4.176Z" transform="translate(39.765 99.494)" fill="#f15635"/></g><g transform="translate(729.922 484.569)"><path d="M346.629,410.139q-.081.338-.13.636a3.064,3.064,0,0,0-.049.459,1.407,1.407,0,0,0,.737,1.316,8.182,8.182,0,0,0,2.811.637l-.339,1.456H334.365l.338-1.456q.5-.019,1.485-.129a7.662,7.662,0,0,0,1.465-.269,2.383,2.383,0,0,0,1.186-.8,3.206,3.206,0,0,0,.568-1.236l4.571-19.773c.067-.279.113-.511.14-.7a3.223,3.223,0,0,0,.04-.418,1.44,1.44,0,0,0-.848-1.306,8.663,8.663,0,0,0-2.76-.747l.339-1.456h15.3l-.339,1.456a13.771,13.771,0,0,0-1.5.2q-.888.16-1.385.3a2.152,2.152,0,0,0-1.216.827,3.841,3.841,0,0,0-.539,1.21l-2.224,9.624h.821q2.173-1.636,4.624-3.588t4.087-3.428q1.854-1.695,2.862-2.771a3.031,3.031,0,0,0,1.007-1.634c0-.2-.213-.355-.638-.47a12.616,12.616,0,0,0-2.115-.268l.339-1.456h12.309l-.338,1.456a14.442,14.442,0,0,0-3.936.936,15.76,15.76,0,0,0-3.417,1.974q-2.771,2.093-4.743,3.787t-4.184,3.509q1.534,2.571,3.317,5.441t3.935,6.379a9.3,9.3,0,0,0,1.275,1.715,5.833,5.833,0,0,0,1.634,1.156,4.1,4.1,0,0,0,1.056.338,7.4,7.4,0,0,0,1.057.14l-.339,1.456H357a62.7,62.7,0,0,0-3.309-6.608q-1.653-2.821-3.866-6.449h-1.219Z" transform="translate(-334.365 -383.786)" fill="#363636"/><path d="M397.355,411.521l-.438,1.753q-1.973.778-3.148,1.186a8.313,8.313,0,0,1-2.729.408,5.345,5.345,0,0,1-3.7-1.186,3.789,3.789,0,0,1-1.324-2.939q0-.559.05-1.236a11.422,11.422,0,0,1,.347-1.854l1.426-5.3q.218-.855.328-1.545a7.466,7.466,0,0,0,.109-1.126,2.243,2.243,0,0,0-.457-1.5,1.946,1.946,0,0,0-1.552-.538,5.489,5.489,0,0,0-1.93.528,10.222,10.222,0,0,0-2.806,1.963l-3.306,14.392h-6.588l5.865-25.375c.053-.226.093-.438.12-.637a3.859,3.859,0,0,0,.039-.5,2.285,2.285,0,0,0-.24-1.136,1.761,1.761,0,0,0-.718-.677,3.442,3.442,0,0,0-1.1-.359q-.619-.1-1.437-.179l.358-1.475,10.5-.519.219.319-3.189,13.794h.14a16.123,16.123,0,0,1,3.849-2.562,10.064,10.064,0,0,1,4.288-.926,4.745,4.745,0,0,1,3.461,1.215,3.97,3.97,0,0,1,1.247,2.95q0,.458-.07,1.286a9.776,9.776,0,0,1-.329,1.764l-1.516,5.6a16.046,16.046,0,0,0-.359,1.594,8.452,8.452,0,0,0-.159,1.355,2.037,2.037,0,0,0,.508,1.6,2.77,2.77,0,0,0,1.784.439,5.137,5.137,0,0,0,1.356-.21A7.564,7.564,0,0,0,397.355,411.521Z" transform="translate(-335.923 -383.674)" fill="#363636"/><path d="M415.111,411.818h-.139a17.147,17.147,0,0,1-3.985,2.859,9.876,9.876,0,0,1-4.384.926,4.6,4.6,0,0,1-3.417-1.217,4.043,4.043,0,0,1-1.205-2.953,11.477,11.477,0,0,1,.07-1.258,13.474,13.474,0,0,1,.37-1.8l1.5-5.607q.139-.559.329-1.526a8.3,8.3,0,0,0,.19-1.427,2.149,2.149,0,0,0-.448-1.547,2.508,2.508,0,0,0-1.746-.449,4.553,4.553,0,0,0-1.308.2c-.445.133-.828.259-1.147.379l.439-1.795q1.614-.657,3.089-1.126a9.214,9.214,0,0,1,2.789-.469,5.194,5.194,0,0,1,3.657,1.187,3.845,3.845,0,0,1,1.286,2.944q0,.359-.079,1.318a8.971,8.971,0,0,1-.319,1.776l-1.453,5.308a11.692,11.692,0,0,0-.319,1.506,9.118,9.118,0,0,0-.12,1.167,2.316,2.316,0,0,0,.439,1.487,1.832,1.832,0,0,0,1.515.549,4.906,4.906,0,0,0,2.062-.656,10.746,10.746,0,0,0,2.54-1.869L418.6,395.35l6.359-.278.239.278L422.376,407.6q-.139.578-.329,1.533a8.164,8.164,0,0,0-.189,1.413,1.969,1.969,0,0,0,.508,1.573,2.868,2.868,0,0,0,1.781.419,5.17,5.17,0,0,0,1.354-.21,7.585,7.585,0,0,0,1.1-.369l-.439,1.794q-1.975.778-3.151,1.186a8.331,8.331,0,0,1-2.732.408,5.715,5.715,0,0,1-3.51-.986A4.208,4.208,0,0,1,415.111,411.818Z" transform="translate(-337.1 -384.148)" fill="#363636"/><path d="M443.262,383.993l-5.36,23.322q-.139.579-.329,1.535a8.112,8.112,0,0,0-.19,1.415,1.835,1.835,0,0,0,.576,1.574,3.314,3.314,0,0,0,1.9.419,6.014,6.014,0,0,0,1.349-.21,7.891,7.891,0,0,0,1.209-.368l-.438,1.794q-1.973.778-3.229,1.185a9.18,9.18,0,0,1-2.851.41,5.645,5.645,0,0,1-3.768-1.167,3.71,3.71,0,0,1-1.375-2.96,9.591,9.591,0,0,1,.129-1.535q.129-.8.289-1.534l4.305-18.717c.052-.226.092-.438.119-.637a3.875,3.875,0,0,0,.04-.5,2.285,2.285,0,0,0-.24-1.136,1.765,1.765,0,0,0-.717-.677,3.439,3.439,0,0,0-1.1-.359q-.618-.1-1.435-.179l.359-1.475,10.526-.519Z" transform="translate(-338.395 -383.674)" fill="#363636"/><path d="M454.312,415.652a12.408,12.408,0,0,1-4.195-.648,8.064,8.064,0,0,1-2.981-1.8,7.507,7.507,0,0,1-1.733-2.692,9.525,9.525,0,0,1-.579-3.388,12.272,12.272,0,0,1,.878-4.565,11.983,11.983,0,0,1,2.611-3.987,12.292,12.292,0,0,1,4.146-2.75,14.15,14.15,0,0,1,5.54-1.056,10.557,10.557,0,0,1,5.432,1.135,3.731,3.731,0,0,1,1.864,3.408,5.026,5.026,0,0,1-1.615,3.738,9.938,9.938,0,0,1-4.385,2.322,35.055,35.055,0,0,1-3.737.937q-1.547.279-3.778.517a14.929,14.929,0,0,0,.24,1.974,6.756,6.756,0,0,0,.6,1.874,3.629,3.629,0,0,0,1.356,1.425,4.273,4.273,0,0,0,2.233.528,8.166,8.166,0,0,0,4-.906,10.311,10.311,0,0,0,3.14-2.881l1.454,1.217a13.3,13.3,0,0,1-4.594,4.075A12.142,12.142,0,0,1,454.312,415.652Zm4.5-15.786a4.6,4.6,0,0,0-.617-2.6,1.966,1.966,0,0,0-1.714-.907q-1.536,0-2.9,2.5a16.6,16.6,0,0,0-1.744,6.329q1.176-.139,2.332-.359a8.709,8.709,0,0,0,1.833-.517,4.675,4.675,0,0,0,2.153-1.7A5.069,5.069,0,0,0,458.817,399.865Z" transform="translate(-338.983 -384.138)" fill="#363636"/><path d="M494.716,411.944l-.44,1.794q-1.976.778-3.154,1.186a8.35,8.35,0,0,1-2.736.408,5.325,5.325,0,0,1-3.694-1.186,3.8,3.8,0,0,1-1.318-2.939q0-.479.05-1.227a10.777,10.777,0,0,1,.331-1.864l1.446-5.3q.22-.855.331-1.545a7.479,7.479,0,0,0,.11-1.126,2.239,2.239,0,0,0-.459-1.5,1.942,1.942,0,0,0-1.551-.538,5.485,5.485,0,0,0-1.93.528,10.206,10.206,0,0,0-2.8,1.963l-3.307,14.392H469l2.834-12.259q.119-.558.309-1.456a7.533,7.533,0,0,0,.19-1.494,2.079,2.079,0,0,0-.469-1.566,2.559,2.559,0,0,0-1.7-.428,4.585,4.585,0,0,0-1.307.2c-.446.133-.829.26-1.147.379l.439-1.795q1.614-.657,3.091-1.126a9.227,9.227,0,0,1,2.791-.469,5.594,5.594,0,0,1,3.519.927,4.458,4.458,0,0,1,1.546,2.6h.14a16.6,16.6,0,0,1,4.034-2.761,10.231,10.231,0,0,1,4.434-.986,4.738,4.738,0,0,1,3.457,1.215,3.973,3.973,0,0,1,1.246,2.95q0,.458-.07,1.286a9.77,9.77,0,0,1-.329,1.764l-1.516,5.6a16.064,16.064,0,0,0-.359,1.593,8.452,8.452,0,0,0-.159,1.355,1.971,1.971,0,0,0,.508,1.575,2.87,2.87,0,0,0,1.784.42,5.183,5.183,0,0,0,1.356-.21A7.551,7.551,0,0,0,494.716,411.944Z" transform="translate(-339.94 -384.138)" fill="#363636"/><path d="M511.458,412.9H511.3q-.5.4-1.157.857a8.663,8.663,0,0,1-1.415.8,11.258,11.258,0,0,1-1.715.668,7.449,7.449,0,0,1-2.013.229,6.871,6.871,0,0,1-5.332-2.033,7.943,7.943,0,0,1-1.865-5.581,13.329,13.329,0,0,1,.957-5.053,14.084,14.084,0,0,1,2.591-4.176,12.04,12.04,0,0,1,3.817-2.81,10.8,10.8,0,0,1,4.655-1.036,11.952,11.952,0,0,1,3.169.378,6.507,6.507,0,0,1,2.372,1.176l6.088-1.255.279.319-3.4,16.2a20.049,20.049,0,0,1-2.211,5.99,12.808,12.808,0,0,1-3.29,3.757,11.742,11.742,0,0,1-4,1.963,17.138,17.138,0,0,1-4.375.548,17.757,17.757,0,0,1-4-.369,6.934,6.934,0,0,1-2.361-.947,2.953,2.953,0,0,1-1.087-1.246,3.461,3.461,0,0,1-.289-1.346,3,3,0,0,1,.807-2.043,2.849,2.849,0,0,1,2.243-.906,3.329,3.329,0,0,1,1.924.578,6.575,6.575,0,0,1,1.485,1.4,10.718,10.718,0,0,1,1.076,1.7q.5.966.758,1.565a9.375,9.375,0,0,0,1.823-.518,4.489,4.489,0,0,0,1.745-1.356,10.9,10.9,0,0,0,1.525-2.65A25.183,25.183,0,0,0,511.458,412.9Zm2.677-13.056a4.255,4.255,0,0,0-.13-1.026,2.618,2.618,0,0,0-.509-1.007,2.746,2.746,0,0,0-.937-.788,3.329,3.329,0,0,0-1.516-.288,3.637,3.637,0,0,0-2.395.927,8.407,8.407,0,0,0-1.935,2.482,14.712,14.712,0,0,0-1.3,3.578,18.423,18.423,0,0,0-.479,4.216,8.584,8.584,0,0,0,.17,1.764,4.14,4.14,0,0,0,.588,1.444,2.625,2.625,0,0,0,1.086.957,3.441,3.441,0,0,0,1.5.319,3.97,3.97,0,0,0,2-.6,6.909,6.909,0,0,0,1.643-1.275Z" transform="translate(-341.153 -384.138)" fill="#363636"/><path d="M535.108,415.652a12.408,12.408,0,0,1-4.195-.648,8.056,8.056,0,0,1-2.981-1.8,7.508,7.508,0,0,1-1.733-2.692,9.525,9.525,0,0,1-.579-3.388,12.272,12.272,0,0,1,.878-4.565,11.984,11.984,0,0,1,2.611-3.987,12.292,12.292,0,0,1,4.146-2.75,14.15,14.15,0,0,1,5.54-1.056,10.557,10.557,0,0,1,5.432,1.135,3.731,3.731,0,0,1,1.864,3.408,5.026,5.026,0,0,1-1.615,3.738,9.938,9.938,0,0,1-4.385,2.322,35.066,35.066,0,0,1-3.737.937q-1.547.279-3.778.517a14.928,14.928,0,0,0,.24,1.974,6.756,6.756,0,0,0,.6,1.874,3.63,3.63,0,0,0,1.356,1.425,4.271,4.271,0,0,0,2.233.528,8.166,8.166,0,0,0,4-.906,10.309,10.309,0,0,0,3.14-2.881l1.454,1.217A13.3,13.3,0,0,1,541,414.126,12.142,12.142,0,0,1,535.108,415.652Zm4.5-15.786a4.6,4.6,0,0,0-.617-2.6,1.965,1.965,0,0,0-1.714-.907q-1.536,0-2.9,2.5a16.6,16.6,0,0,0-1.744,6.329q1.176-.139,2.331-.359a8.721,8.721,0,0,0,1.834-.517,4.679,4.679,0,0,0,2.153-1.7A5.068,5.068,0,0,0,539.613,399.865Z" transform="translate(-342.361 -384.138)" fill="#363636"/></g><g transform="translate(729.922 527.908)"><path d="M586.328,411.944l-.439,1.794q-1.976.778-3.155,1.186a8.345,8.345,0,0,1-2.735.408,5.322,5.322,0,0,1-3.694-1.186,3.8,3.8,0,0,1-1.319-2.939q0-.479.051-1.227a10.765,10.765,0,0,1,.331-1.864l1.446-5.3q.22-.855.33-1.545a7.46,7.46,0,0,0,.109-1.126,2.238,2.238,0,0,0-.458-1.5,1.943,1.943,0,0,0-1.551-.538,5.494,5.494,0,0,0-1.931.528,10.22,10.22,0,0,0-2.8,1.963L567.2,414.994h-6.588l2.833-12.259q.119-.558.31-1.456a7.526,7.526,0,0,0,.189-1.494,2.079,2.079,0,0,0-.469-1.566,2.559,2.559,0,0,0-1.7-.428,4.574,4.574,0,0,0-1.307.2c-.446.133-.829.26-1.147.379l.439-1.795q1.614-.657,3.09-1.126a9.238,9.238,0,0,1,2.792-.469,5.594,5.594,0,0,1,3.519.927,4.457,4.457,0,0,1,1.545,2.6h.139a16.623,16.623,0,0,1,4.035-2.761,10.231,10.231,0,0,1,4.433-.986,4.739,4.739,0,0,1,3.457,1.215,3.972,3.972,0,0,1,1.245,2.95q0,.458-.069,1.286a9.787,9.787,0,0,1-.33,1.764l-1.516,5.6a16.308,16.308,0,0,0-.358,1.593,8.345,8.345,0,0,0-.159,1.355,1.968,1.968,0,0,0,.508,1.575,2.866,2.866,0,0,0,1.784.42,5.182,5.182,0,0,0,1.356-.21A7.523,7.523,0,0,0,586.328,411.944Z" transform="translate(-559.32 -389.6)" fill="#363636"/><path d="M603.323,412.5h-.16q-.7.6-1.326,1.089a9.952,9.952,0,0,1-1.586.991,10.679,10.679,0,0,1-1.765.722,6.877,6.877,0,0,1-2.044.287,6.512,6.512,0,0,1-5.225-2.042,8.279,8.279,0,0,1-1.755-5.585,13.389,13.389,0,0,1,.977-5.118,14.271,14.271,0,0,1,2.613-4.2,12.459,12.459,0,0,1,3.869-2.837,10.789,10.789,0,0,1,4.667-1.045,10.611,10.611,0,0,1,3.141.418,6.338,6.338,0,0,1,2.2,1.136l6.114-1.255.279.319-2.937,12.258q-.16.618-.338,1.544a8.069,8.069,0,0,0-.179,1.407,1.944,1.944,0,0,0,.518,1.564,2.858,2.858,0,0,0,1.795.429,5.142,5.142,0,0,0,1.345-.219,9.577,9.577,0,0,0,1.106-.359L614.2,413.8q-1.972.778-3.157,1.186a8.375,8.375,0,0,1-2.739.408,5.883,5.883,0,0,1-3.277-.807A4.248,4.248,0,0,1,603.323,412.5Zm2.372-12.641a5.394,5.394,0,0,0-.12-1.035,2.609,2.609,0,0,0-.419-1.016,2.319,2.319,0,0,0-.938-.786,3.4,3.4,0,0,0-1.436-.268,3.652,3.652,0,0,0-2.424.945,8.792,8.792,0,0,0-1.964,2.519,14.46,14.46,0,0,0-1.318,3.613,18.493,18.493,0,0,0-.479,4.21,10.225,10.225,0,0,0,.15,1.812,4.242,4.242,0,0,0,.489,1.413,2.516,2.516,0,0,0,.968.954,3.112,3.112,0,0,0,1.528.339,3.345,3.345,0,0,0,1.806-.547,8.061,8.061,0,0,0,1.608-1.344Z" transform="translate(-560.58 -389.6)" fill="#363636"/><path d="M632.245,411.815h-.139a15.118,15.118,0,0,1-4.139,2.851,10.654,10.654,0,0,1-4.178.8,4.615,4.615,0,0,1-3.432-1.235,4.075,4.075,0,0,1-1.224-2.97A11.435,11.435,0,0,1,619.2,410a13.5,13.5,0,0,1,.37-1.794l1.5-5.441q.141-.558.33-1.526a8.254,8.254,0,0,0,.19-1.425,2.138,2.138,0,0,0-.449-1.565,2.594,2.594,0,0,0-1.747-.428,4.557,4.557,0,0,0-1.308.2c-.446.133-.828.259-1.148.379l.439-1.795q1.616-.657,3.093-1.126a9.237,9.237,0,0,1,2.793-.469,5.2,5.2,0,0,1,3.66,1.187,3.846,3.846,0,0,1,1.287,2.944q0,.359-.08,1.318a8.965,8.965,0,0,1-.319,1.776l-1.458,5.189a11.806,11.806,0,0,0-.319,1.5,8.9,8.9,0,0,0-.12,1.157,2.138,2.138,0,0,0,.487,1.517,2.023,2.023,0,0,0,1.539.518,5.224,5.224,0,0,0,2.214-.673,9.662,9.662,0,0,0,2.471-1.8l3.05-14.292,6.318-.278.28.319-3.508,16.2a19.7,19.7,0,0,1-2.232,5.99,12.915,12.915,0,0,1-3.326,3.757,11.989,11.989,0,0,1-3.923,1.923,15.887,15.887,0,0,1-4.281.588,18.542,18.542,0,0,1-3.933-.349,6.83,6.83,0,0,1-2.439-.967,2.957,2.957,0,0,1-1.086-1.246,3.46,3.46,0,0,1-.288-1.346,2.961,2.961,0,0,1,.815-2.052,2.864,2.864,0,0,1,2.23-.9,3.314,3.314,0,0,1,1.919.578,6.565,6.565,0,0,1,1.483,1.4,10.508,10.508,0,0,1,1.1,1.724q.489.947.746,1.546a5.42,5.42,0,0,0,.885-.249,4.1,4.1,0,0,0,.885-.428,9.152,9.152,0,0,0,.916-.678,6.387,6.387,0,0,0,.915-1.036,14.289,14.289,0,0,0,1.772-3.309A27.463,27.463,0,0,0,632.245,411.815Z" transform="translate(-561.729 -389.611)" fill="#363636"/><path d="M655.7,415.652A12.408,12.408,0,0,1,651.5,415a8.064,8.064,0,0,1-2.981-1.8,7.508,7.508,0,0,1-1.733-2.692,9.528,9.528,0,0,1-.579-3.388,12.272,12.272,0,0,1,.878-4.565,11.985,11.985,0,0,1,2.611-3.987,12.293,12.293,0,0,1,4.146-2.75,14.15,14.15,0,0,1,5.54-1.056,10.557,10.557,0,0,1,5.432,1.135,3.731,3.731,0,0,1,1.864,3.408,5.026,5.026,0,0,1-1.615,3.738,9.936,9.936,0,0,1-4.385,2.322,35,35,0,0,1-3.738.937q-1.545.279-3.777.517a14.938,14.938,0,0,0,.24,1.974,6.756,6.756,0,0,0,.6,1.874,3.63,3.63,0,0,0,1.356,1.425,4.273,4.273,0,0,0,2.233.528,8.166,8.166,0,0,0,4-.906,10.31,10.31,0,0,0,3.14-2.881l1.455,1.217a13.3,13.3,0,0,1-4.595,4.075A12.145,12.145,0,0,1,655.7,415.652Zm4.5-15.786a4.61,4.61,0,0,0-.617-2.6,1.966,1.966,0,0,0-1.714-.907q-1.537,0-2.9,2.5a16.6,16.6,0,0,0-1.744,6.329q1.176-.139,2.332-.359a8.71,8.71,0,0,0,1.833-.517,4.679,4.679,0,0,0,2.153-1.7A5.068,5.068,0,0,0,660.2,399.865Z" transform="translate(-562.953 -389.6)" fill="#363636"/><path d="M701.378,398.908a5.81,5.81,0,0,1-.26,1.734,3.932,3.932,0,0,1-.777,1.435,4.089,4.089,0,0,1-1.216,1.006,3.979,3.979,0,0,1-1.794.33,3.491,3.491,0,0,1-2.352-.738,2.155,2.155,0,0,1-.857-1.654,3.945,3.945,0,0,1,.249-1.476q.249-.618.788-1.874a8.876,8.876,0,0,0-2.3,1.366,15.515,15.515,0,0,0-1.846,1.843l-3.148,14.113h-6.579l2.753-12.259q.119-.558.308-1.456a7.529,7.529,0,0,0,.19-1.494,2.13,2.13,0,0,0-.449-1.575,2.6,2.6,0,0,0-1.725-.419,4.577,4.577,0,0,0-1.306.2q-.667.2-1.146.379l.438-1.795q1.613-.657,3.085-1.126a9.214,9.214,0,0,1,2.788-.469,5.58,5.58,0,0,1,3.514.927,4.454,4.454,0,0,1,1.543,2.6h.14a17.308,17.308,0,0,1,3.353-2.92,5.644,5.644,0,0,1,2.954-.827,3.451,3.451,0,0,1,2.674,1.065A4.4,4.4,0,0,1,701.378,398.908Z" transform="translate(-564.362 -389.6)" fill="#363636"/><path d="M717.257,412.5h-.16q-.7.6-1.326,1.089a9.99,9.99,0,0,1-1.586.991,10.708,10.708,0,0,1-1.764.722,6.893,6.893,0,0,1-2.045.287,6.514,6.514,0,0,1-5.226-2.042,8.289,8.289,0,0,1-1.755-5.585,13.39,13.39,0,0,1,.977-5.118,14.27,14.27,0,0,1,2.612-4.2,12.463,12.463,0,0,1,3.87-2.837,10.789,10.789,0,0,1,4.667-1.045,10.62,10.62,0,0,1,3.141.418,6.325,6.325,0,0,1,2.2,1.136l6.115-1.255.279.319-2.937,12.258q-.16.618-.339,1.544a8.142,8.142,0,0,0-.178,1.407,1.945,1.945,0,0,0,.517,1.564,2.859,2.859,0,0,0,1.795.429,5.137,5.137,0,0,0,1.345-.219,9.522,9.522,0,0,0,1.106-.359l-.438,1.794q-1.973.778-3.157,1.186a8.37,8.37,0,0,1-2.738.408,5.885,5.885,0,0,1-3.277-.807A4.242,4.242,0,0,1,717.257,412.5Zm2.372-12.641a5.393,5.393,0,0,0-.12-1.035,2.609,2.609,0,0,0-.419-1.016,2.312,2.312,0,0,0-.938-.786,3.4,3.4,0,0,0-1.436-.268,3.652,3.652,0,0,0-2.424.945,8.845,8.845,0,0,0-1.965,2.519,14.54,14.54,0,0,0-1.317,3.613,18.592,18.592,0,0,0-.477,4.21,10.407,10.407,0,0,0,.148,1.812,4.284,4.284,0,0,0,.49,1.413,2.516,2.516,0,0,0,.968.954,3.108,3.108,0,0,0,1.527.339,3.353,3.353,0,0,0,1.808-.547,8.082,8.082,0,0,0,1.607-1.344Z" transform="translate(-565.343 -389.6)" fill="#363636"/><path d="M745.382,412.5h-.16q-.7.6-1.326,1.089a9.994,9.994,0,0,1-1.586.991,10.706,10.706,0,0,1-1.764.722,6.893,6.893,0,0,1-2.045.287,6.514,6.514,0,0,1-5.226-2.042,8.284,8.284,0,0,1-1.754-5.585,13.39,13.39,0,0,1,.977-5.118,14.271,14.271,0,0,1,2.612-4.2,12.475,12.475,0,0,1,3.87-2.837,10.79,10.79,0,0,1,4.667-1.045,10.621,10.621,0,0,1,3.141.418,6.333,6.333,0,0,1,2.2,1.136l6.114-1.255.28.319-2.937,12.258q-.159.618-.339,1.544a8.16,8.16,0,0,0-.179,1.407,1.945,1.945,0,0,0,.518,1.564,2.857,2.857,0,0,0,1.795.429,5.143,5.143,0,0,0,1.345-.219A9.571,9.571,0,0,0,756.7,412l-.439,1.794q-1.972.778-3.157,1.186a8.36,8.36,0,0,1-2.737.408,5.885,5.885,0,0,1-3.277-.807A4.243,4.243,0,0,1,745.382,412.5Zm2.372-12.641a5.393,5.393,0,0,0-.12-1.035,2.6,2.6,0,0,0-.42-1.016,2.3,2.3,0,0,0-.937-.786,3.4,3.4,0,0,0-1.436-.268,3.653,3.653,0,0,0-2.424.945,8.812,8.812,0,0,0-1.965,2.519,14.537,14.537,0,0,0-1.318,3.613,18.541,18.541,0,0,0-.478,4.21,10.321,10.321,0,0,0,.15,1.812,4.284,4.284,0,0,0,.49,1.413,2.515,2.515,0,0,0,.968.954,3.108,3.108,0,0,0,1.527.339,3.356,3.356,0,0,0,1.808-.547,8.084,8.084,0,0,0,1.607-1.344Z" transform="translate(-566.519 -389.6)" fill="#363636"/><path d="M766.972,415.652a17.685,17.685,0,0,1-4.155-.408,8.386,8.386,0,0,1-2.6-1.046,3.636,3.636,0,0,1-1.336-1.366,3.091,3.091,0,0,1-.358-1.365,2.777,2.777,0,0,1,.866-2.023,3.113,3.113,0,0,1,2.3-.866,3.2,3.2,0,0,1,2,.617,5.169,5.169,0,0,1,1.345,1.555,9.894,9.894,0,0,1,.838,1.893q.339,1.036.477,1.535a5.2,5.2,0,0,0,3.409-.967,3.26,3.26,0,0,0,1.156-2.641,2.1,2.1,0,0,0-.349-1.236,3.369,3.369,0,0,0-.927-.878,8.563,8.563,0,0,0-1.475-.7q-.9-.339-1.774-.637a9.435,9.435,0,0,1-3.818-2.263,4.953,4.953,0,0,1-1.406-3.6,5.117,5.117,0,0,1,.587-2.4,6.38,6.38,0,0,1,1.844-2.082,9.778,9.778,0,0,1,3.129-1.466,16,16,0,0,1,4.425-.547,20.7,20.7,0,0,1,2.811.178,9.4,9.4,0,0,1,2.411.658,4.214,4.214,0,0,1,1.645,1.246,2.978,2.978,0,0,1,.588,1.865,2.509,2.509,0,0,1-.828,1.883,3.37,3.37,0,0,1-4.086.187,4.962,4.962,0,0,1-1.247-1.421,8.778,8.778,0,0,1-.757-1.73q-.279-.89-.459-1.49a4.342,4.342,0,0,0-2.541,1.012,2.874,2.874,0,0,0-1.146,2.317,2.69,2.69,0,0,0,.269,1.316,2.371,2.371,0,0,0,.727.8,6.325,6.325,0,0,0,1.306.668q.788.31,1.963.708a11.163,11.163,0,0,1,4.086,2.292,4.7,4.7,0,0,1,1.376,3.528,6.069,6.069,0,0,1-2.572,4.943,10.175,10.175,0,0,1-3.17,1.446A17.8,17.8,0,0,1,766.972,415.652Z" transform="translate(-567.648 -389.6)" fill="#363636"/><path d="M788.547,415.287a5.9,5.9,0,0,1-3.828-1.166,3.654,3.654,0,0,1-1.435-2.961,9.389,9.389,0,0,1,.1-1.4q.1-.658.319-1.694l2.471-10.6h-3.648l.478-2.054h3.721l1.443-6.039h6.454l-1.4,6.039h5.41l-.478,2.054h-5.381l-2.43,10.6q-.139.559-.269,1.356a8.322,8.322,0,0,0-.129,1.036,1.79,1.79,0,0,0,.628,1.575,3.386,3.386,0,0,0,1.923.438,8.445,8.445,0,0,0,1.7-.24,13.618,13.618,0,0,0,1.523-.4l-.439,1.794a21.431,21.431,0,0,1-3.518,1.216A13.453,13.453,0,0,1,788.547,415.287Z" transform="translate(-568.652 -389.375)" fill="#363636"/><path d="M809.032,415.652a12.423,12.423,0,0,1-4.2-.648,8.055,8.055,0,0,1-2.979-1.8,7.511,7.511,0,0,1-1.734-2.692,9.547,9.547,0,0,1-.578-3.388,12.29,12.29,0,0,1,.877-4.565,12,12,0,0,1,2.611-3.987,12.291,12.291,0,0,1,4.146-2.75,14.152,14.152,0,0,1,5.541-1.056,10.56,10.56,0,0,1,5.432,1.135,3.732,3.732,0,0,1,1.863,3.408,5.023,5.023,0,0,1-1.615,3.738,9.937,9.937,0,0,1-4.385,2.322,34.994,34.994,0,0,1-3.737.937q-1.545.279-3.778.517a15.1,15.1,0,0,0,.24,1.974,6.791,6.791,0,0,0,.6,1.874,3.636,3.636,0,0,0,1.356,1.425,4.276,4.276,0,0,0,2.233.528,8.169,8.169,0,0,0,4-.906,10.307,10.307,0,0,0,3.139-2.881l1.455,1.217a13.317,13.317,0,0,1-4.595,4.075A12.147,12.147,0,0,1,809.032,415.652Zm4.5-15.786a4.6,4.6,0,0,0-.618-2.6,1.965,1.965,0,0,0-1.714-.907q-1.535,0-2.9,2.5a16.56,16.56,0,0,0-1.744,6.329q1.174-.139,2.331-.359a8.738,8.738,0,0,0,1.834-.517,4.684,4.684,0,0,0,2.153-1.7A5.076,5.076,0,0,0,813.537,399.865Z" transform="translate(-569.363 -389.6)" fill="#363636"/></g><ellipse cx="6.504" cy="6.504" rx="6.504" ry="6.504" transform="translate(992.343 541.049)" fill="#f15635"/><ellipse cx="6.504" cy="6.504" rx="6.504" ry="6.504" transform="translate(1012.598 541.049)" fill="#f15635"/><ellipse cx="6.504" cy="6.504" rx="6.504" ry="6.504" transform="translate(1032.853 541.049)" fill="#f15635"/></g></svg>